<svg width="192" height="192" viewBox="0 0 192 192" fill="none" xmlns="http://www.w3.org/2000/svg">
  <rect width="192" height="192" rx="24" fill="#2563eb"/>
  <path d="M48 64C48 55.1634 55.1634 48 64 48H128C136.837 48 144 55.1634 144 64V80C144 88.8366 136.837 96 128 96H64C55.1634 96 48 88.8366 48 80V64Z" fill="white"/>
  <path d="M48 112C48 103.163 55.1634 96 64 96H128C136.837 96 144 103.163 144 112V128C144 136.837 136.837 144 128 144H64C55.1634 144 48 136.837 48 128V112Z" fill="white"/>
  <circle cx="96" cy="72" r="12" fill="#2563eb"/>
  <circle cx="96" cy="120" r="12" fill="#2563eb"/>
  <text x="96" y="170" font-family="Arial, sans-serif" font-size="16" font-weight="bold" text-anchor="middle" fill="white">GRH</text>
</svg>
